<svg preserveAspectRatio="none" width="100%" height="100%" overflow="visible" style="display: block;" viewBox="0 0 621.588 83.7915" fill="none" xmlns="http://www.w3.org/2000/svg">
<g id="Group 8">
<path id="Path" d="M599.22 71.5625C599.085 71.8056 598.433 71.8458 598.433 71.8458C572.035 74.4975 542.177 74.803 517.182 70.7571C490.702 66.4701 479.593 57.2285 463.778 50.3859C449.61 44.2551 438.002 37.7546 406.626 44.9543L385.805 49.9941C367.863 54.3322 347.552 59.9645 324.807 61.8492C319.843 62.2647 314.771 62.4929 309.563 62.4966C309.014 62.4882 308.46 62.4797 307.911 62.4713C302.971 62.3231 298.125 62.0999 293.369 61.7833L293.209 61.7713C282.414 61.0392 272.155 59.7996 262.571 57.7551C246.648 54.3467 236.234 49.4889 225.461 44.9534L212.072 38.7508C192.405 29.129 169.703 19.5266 128.719 17.7339C127.636 17.6871 127.773 17.4168 128.844 17.3737C141.276 16.8597 164.909 17.3956 176.632 18.5394C203.437 21.1603 220.093 26.8955 234.173 33.4509L248.617 40.8274C260.975 47.0529 272.625 52.4262 290.157 56.514C293.08 57.1954 296.946 57.4807 300.689 57.2847C302.743 57.1772 304.775 57.0363 306.773 56.8594C332.43 54.5972 344.86 50.3053 364.955 44.6432C364.955 44.6432 383.358 39.5937 392.771 37.8067C460.377 23.2295 493.76 55.188 538.403 64.8918C555.882 68.6972 576.256 70.8918 598.436 71.3327C598.436 71.3327 599.326 71.3241 599.22 71.5625Z" fill="var(--fill-0, #DC1919)"/>
<path id="path1" d="M501.12 67.5437C488.681 68.0641 465.049 67.5282 453.331 66.378C426.521 63.7635 409.893 58.0236 395.785 51.4729L381.364 44.0981C369.81 38.2829 358.902 33.2095 343.247 29.2383C335.613 27.302 324.809 26.558 314.963 27.4155C314.907 27.4203 314.852 27.4252 314.796 27.43C289.133 29.6987 276.703 33.9906 256.608 39.6527C256.608 39.6527 238.228 44.7039 228.821 46.4845C161.192 61.0599 127.81 29.1015 83.1896 19.3994C65.6813 15.5987 45.3365 13.3994 23.128 12.9632C23.128 12.9632 22.2433 12.9654 22.3723 12.7287C22.4786 12.4903 23.1591 12.4454 23.1591 12.4454C49.5345 9.79206 79.3929 9.48649 104.388 13.5324C130.868 17.8193 141.994 27.0691 157.791 33.9036C171.96 40.0345 183.567 46.5349 214.967 39.3369L235.765 34.2954C259.681 28.5085 287.459 21.4581 320.379 21.9964C340.259 22.3215 350.687 23.5363 367.386 27.1687C383.207 30.6101 393.724 35.4348 404.496 39.9704L417.885 46.1729C437.559 55.7884 460.277 65.3988 501.262 67.1916C502.322 67.2366 502.191 67.5006 501.12 67.5437Z" fill="var(--fill-0, #FAFCFF)"/>
</g>
</svg>
